<svg width="163" height="57" xmlns="http://www.w3.org/2000/svg"><path d="M38.65 55.454C27.754 38.988 21.97 19.76 22 .115V0h-9.398c-.027 19.471 5.184 38.603 15.104 55.454h10.942Zm12.412-27.727A115.198 115.198 0 0 1 40.33 55.454h10.356a124.218 124.218 0 0 0 9.809-27.727h-9.433ZM0 18.485a124.343 124.343 0 0 0 11.542 36.969h10.303A115.216 115.216 0 0 1 9.28 18.484H0Zm78.01 30.832h-.072l-2.285-21.91h-7.596l5.281 28.298h9.075l5.306-28.297H80.3l-2.29 21.909Zm21.568 6.422h7.245l-5.91-28.331h-8.83l-5.944 28.297h7.245l.706-4.319h4.71l.778 4.353Zm-1.55-10.502h-3.203l1.618-11.612h.072l1.512 11.612Zm19.032-9.674h6.612c0-4.713-1.196-8.676-8.302-8.676-2.742 0-4.537.788-5.733 1.743-1.618 1.304-2.674 3.447-2.674 7.37 0 4.203 1.267 5.746 5.065 7.888 1.268.711 2.535 1.271 3.481 1.865.946.594 1.513.974 1.513 2.814 0 1.227-.423 2.493-1.724 2.493s-1.757-1.105-1.757-2.493v-1.31h-6.823v.755c0 6.222 2.953 8.277 8.335 8.277 6.51 0 9.219-2.615 9.219-9.197 0-10.103-10.487-7.21-10.487-12.839 0-1.149.567-2.142 1.619-2.142 1.195 0 1.656 1.11 1.656 2.298v1.154Zm19.206 2.342h6.823V35.84c0-4.382-.88-8.953-8.37-8.953-9.04 0-9.04 5.944-9.04 14.703 0 9.037 0 14.704 9.04 14.704 6.156 0 8.514-3.808 8.514-10.424v-1.782h-6.828v2.176c0 3.53-.456 4.796-1.585 4.796-1.718 0-1.92-1.188-1.92-9.47 0-8.048.072-9.474 1.92-9.474 1.44 0 1.44 2.259 1.44 3.49l.006 2.299Zm19.489 3.685c0 8.277-.284 9.47-1.796 9.47-1.513 0-1.796-1.188-1.796-9.47s.283-9.474 1.796-9.474c1.512 0 1.796 1.188 1.796 9.474m-10.837 0c0 9.037 0 14.704 9.04 14.704C163 56.294 163 50.627 163 41.59c0-8.764 0-14.703-9.041-14.703s-9.041 5.944-9.041 14.703"/></svg>